<svg xmlns="http://www.w3.org/2000/svg" viewBox="0 0 32 32" width="32" height="32">
  <!-- Main rocket body (cylindrical) -->
  <rect x="13" y="8" width="6" height="16" fill="#f8f9fa" stroke="#dee2e6" stroke-width="0.5"/>

  <!-- Nose cone (conical) -->
  <path d="M16 2 L13 8 L19 8 Z" fill="#dc3545" stroke="#b02a37" stroke-width="0.5"/>

  <!-- Engine section -->
  <rect x="12" y="24" width="8" height="4" fill="#495057" stroke="#343a40" stroke-width="0.5"/>

  <!-- Side boosters -->
  <rect x="9" y="12" width="3" height="12" fill="#e9ecef" stroke="#adb5bd" stroke-width="0.5"/>
  <rect x="20" y="12" width="3" height="12" fill="#e9ecef" stroke="#adb5bd" stroke-width="0.5"/>

  <!-- Booster nose cones -->
  <path d="M10.5 12 L9 12 L12 12 Z" fill="#6c757d"/>
  <path d="M21.5 12 L20 12 L23 12 Z" fill="#6c757d"/>

  <!-- Command module window -->
  <circle cx="16" cy="12" r="1.5" fill="#17a2b8" stroke="#138496" stroke-width="0.3"/>

  <!-- Body details/panels -->
  <line x1="14" y1="10" x2="14" y2="22" stroke="#ced4da" stroke-width="0.3"/>
  <line x1="18" y1="10" x2="18" y2="22" stroke="#ced4da" stroke-width="0.3"/>

  <!-- Main engine flames -->
  <path d="M13 28 L14 30 L15 29 L16 31 L17 29 L18 30 L19 28" fill="#fd7e14" stroke="#fd7e14" stroke-width="0.2"/>
  <path d="M14 29 L15 31 L16 30 L17 31 L18 29" fill="#dc3545"/>

  <!-- Booster flames -->
  <path d="M9.5 24 L10 26 L10.5 25 L11 26 L11.5 24" fill="#ffc107" stroke="#ffc107" stroke-width="0.2"/>
  <path d="M20.5 24 L21 26 L21.5 25 L22 26 L22.5 24" fill="#ffc107" stroke="#ffc107" stroke-width="0.2"/>

  <!-- Small flame details -->
  <path d="M10 25 L10.5 26.5 L11 25" fill="#fd7e14"/>
  <path d="M21 25 L21.5 26.5 L22 25" fill="#fd7e14"/>
</svg>
